<svg width="12" height="12" viewBox="0 0 12 12" fill="none" xmlns="http://www.w3.org/2000/svg">
<path d="M1.00001 7.00006L8.59001 7.00006L5.29001 10.2901C5.10171 10.4784 4.99592 10.7338 4.99592 11.0001C4.99592 11.2664 5.10171 11.5218 5.29001 11.7101C5.47832 11.8984 5.73371 12.0041 6.00001 12.0041C6.26631 12.0041 6.52171 11.8984 6.71001 11.7101L11.71 6.71006C11.8011 6.61495 11.8724 6.50281 11.92 6.38006C12.02 6.1366 12.02 5.86352 11.92 5.62006C11.8724 5.49731 11.8011 5.38516 11.71 5.29006L6.71001 0.29006C6.61705 0.196332 6.50645 0.121935 6.38459 0.0711665C6.26273 0.0203976 6.13202 -0.00573972 6.00001 -0.00573974C5.868 -0.00573975 5.7373 0.0203976 5.61544 0.0711664C5.49358 0.121935 5.38298 0.196331 5.29001 0.290059C5.19628 0.383023 5.12189 0.493622 5.07112 0.615482C5.02035 0.737341 4.99421 0.868047 4.99421 1.00006C4.99421 1.13207 5.02035 1.26278 5.07112 1.38464C5.12189 1.50649 5.19628 1.61709 5.29001 1.71006L8.59001 5.00006L1.00001 5.00006C0.734796 5.00006 0.480442 5.10541 0.292905 5.29295C0.105369 5.48049 1.29458e-05 5.73484 1.29227e-05 6.00006C1.28995e-05 6.26527 0.105369 6.51963 0.292905 6.70716C0.480442 6.8947 0.734796 7.00006 1.00001 7.00006Z" fill="#F3CC00"/>
</svg>
