<svg width="24" height="16" viewBox="0 0 24 16" fill="none" xmlns="http://www.w3.org/2000/svg">
<mask id="mask0_2002_36" style="mask-type:luminance" maskUnits="userSpaceOnUse" x="0" y="0" width="24" height="16">
<rect width="24" height="16" fill="white"/>
</mask>
<g mask="url(#mask0_2002_36)">
<path fill-rule="evenodd" clip-rule="evenodd" d="M0 0V16H24V0H0Z" fill="#2E42A5"/>
<mask id="mask1_2002_36" style="mask-type:luminance" maskUnits="userSpaceOnUse" x="0" y="0" width="24" height="16">
<path fill-rule="evenodd" clip-rule="evenodd" d="M0 0V16H24V0H0Z" fill="white"/>
</mask>
<g mask="url(#mask1_2002_36)">
<mask id="mask2_2002_36" style="mask-type:luminance" maskUnits="userSpaceOnUse" x="0" y="0" width="24" height="16">
<rect width="24" height="16" fill="white"/>
</mask>
<g mask="url(#mask2_2002_36)">
<path d="M-2.6723 14.8569L2.60896 16.8423L24.1199 2.15855L26.9056 -0.791769L21.2581 -1.45534L12.4843 4.87231L5.42229 9.13566L-2.6723 14.8569Z" fill="white"/>
<path d="M-1.94928 16.2479L0.741282 17.4001L25.9053 -1.06588H22.1274L-1.94928 16.2479Z" fill="#F50100"/>
<path d="M26.6724 14.8569L21.3911 16.8423L-0.119831 2.15855L-2.90558 -0.791769L2.74198 -1.45534L11.5158 4.87231L18.5778 9.13566L26.6724 14.8569Z" fill="white"/>
<path d="M26.4922 15.8553L23.8016 17.0074L13.0865 9.10116L9.90973 8.21782L-3.1736 -0.781645H0.604261L13.6802 8.00421L17.1535 9.06344L26.4922 15.8553Z" fill="#F50100"/>
<mask id="path-9-inside-1_2002_36" fill="white">
<path fill-rule="evenodd" clip-rule="evenodd" d="M14.8334 -1.33331H9.16669V5.33336H-1.47931V10.6667H9.16669V17.3334H14.8334V10.6667H25.5207V5.33336H14.8334V-1.33331Z"/>
</mask>
<path fill-rule="evenodd" clip-rule="evenodd" d="M14.8334 -1.33331H9.16669V5.33336H-1.47931V10.6667H9.16669V17.3334H14.8334V10.6667H25.5207V5.33336H14.8334V-1.33331Z" fill="#F50100"/>
<path d="M9.16669 -1.33331V-2.58331H7.91669V-1.33331H9.16669ZM14.8334 -1.33331H16.0834V-2.58331H14.8334V-1.33331ZM9.16669 5.33336V6.58336H10.4167V5.33336H9.16669ZM-1.47931 5.33336V4.08336H-2.72931V5.33336H-1.47931ZM-1.47931 10.6667H-2.72931V11.9167H-1.47931V10.6667ZM9.16669 10.6667H10.4167V9.4167H9.16669V10.6667ZM9.16669 17.3334H7.91669V18.5834H9.16669V17.3334ZM14.8334 17.3334V18.5834H16.0834V17.3334H14.8334ZM14.8334 10.6667V9.4167H13.5834V10.6667H14.8334ZM25.5207 10.6667V11.9167H26.7707V10.6667H25.5207ZM25.5207 5.33336H26.7707V4.08336H25.5207V5.33336ZM14.8334 5.33336H13.5834V6.58336H14.8334V5.33336ZM9.16669 -0.083313H14.8334V-2.58331H9.16669V-0.083313ZM10.4167 5.33336V-1.33331H7.91669V5.33336H10.4167ZM-1.47931 6.58336H9.16669V4.08336H-1.47931V6.58336ZM-0.229309 10.6667V5.33336H-2.72931V10.6667H-0.229309ZM9.16669 9.4167H-1.47931V11.9167H9.16669V9.4167ZM10.4167 17.3334V10.6667H7.91669V17.3334H10.4167ZM14.8334 16.0834H9.16669V18.5834H14.8334V16.0834ZM13.5834 10.6667V17.3334H16.0834V10.6667H13.5834ZM25.5207 9.4167H14.8334V11.9167H25.5207V9.4167ZM24.2707 5.33336V10.6667H26.7707V5.33336H24.2707ZM14.8334 6.58336H25.5207V4.08336H14.8334V6.58336ZM13.5834 -1.33331V5.33336H16.0834V-1.33331H13.5834Z" fill="white" mask="url(#path-9-inside-1_2002_36)"/>
</g>
</g>
</g>
</svg>
