<svg width="48" height="48" viewBox="0 0 48 48" fill="none" xmlns="http://www.w3.org/2000/svg">
<path d="M24.2396 45.6179C24.1533 45.6788 24.0733 45.735 24 45.7863C23.9267 45.735 23.8467 45.6788 23.7604 45.6179C23.2486 45.2565 22.5153 44.7278 21.6345 44.0615C19.8713 42.7278 17.5246 40.849 15.1821 38.664C12.8351 36.4749 10.5179 34.002 8.79409 31.4824C7.05765 28.9442 6 26.469 6 24.2527V6.82369L24 2.03479L42 6.82369V6.84021V6.88139V6.92255V6.9637V7.00484V7.04596V7.08706V7.12815V7.16923V7.21028V7.25133V7.29235V7.33336V7.37436V7.41534V7.4563V7.49725V7.53818V7.5791V7.62V7.66088V7.70175V7.7426V7.78343V7.82425V7.86506V7.90584V7.94661V7.98736V8.0281V8.06882V8.10952V8.15021V8.19088V8.23153V8.27216V8.31278V8.35338V8.39397V8.43453V8.47508V8.51562V8.55613V8.59663V8.63711V8.67757V8.71802V8.75845V8.79886V8.83925V8.87963V8.91998V8.96032V9.00065V9.04095V9.08123V9.1215V9.16175V9.20198V9.2422V9.28239V9.32257V9.36273V9.40287V9.44299V9.48309V9.52318V9.56324V9.60329V9.64332V9.68333V9.72332V9.76329V9.80325V9.84318V9.88309V9.92299V9.96287V10.0027V10.0426V10.0824V10.1222V10.162V10.2017V10.2415V10.2812V10.3209V10.3606V10.4002V10.4399V10.4795V10.5191V10.5587V10.5983V10.6378V10.6773V10.7168V10.7563V10.7958V10.8352V10.8746V10.914V10.9534V10.9928V11.0321V11.0714V11.1107V11.15V11.1893V11.2285V11.2677V11.3069V11.3461V11.3852V11.4244V11.4635V11.5026V11.5416V11.5807V11.6197V11.6587V11.6977V11.7367V11.7756V11.8145V11.8534V11.8923V11.9311V11.97V12.0088V12.0476V12.0863V12.1251V12.1638V12.2025V12.2412V12.2798V12.3185V12.3571V12.3957V12.4342V12.4728V12.5113V12.5498V12.5883V12.6267V12.6651V12.7035V12.7419V12.7803V12.8186V12.8569V12.8952V12.9335V12.9717V13.01V13.0482V13.0863V13.1245V13.1626V13.2007V13.2388V13.2769V13.3149V13.3529V13.3909V13.4288V13.4668V13.5047V13.5426V13.5804V13.6183V13.6561V13.6939V13.7317V13.7694V13.8071V13.8448V13.8825V13.9202V13.9578V13.9954V14.0329V14.0705V14.108V14.1455V14.183V14.2204V14.2579V14.2953V14.3326V14.37V14.4073V14.4446V14.4819V14.5191V14.5563V14.5935V14.6307V14.6679V14.705V14.7421V14.7791V14.8162V14.8532V14.8902V14.9272V14.9641V15.001V15.0379V15.0748V15.1116V15.1484V15.1852V15.2219V15.2587V15.2954V15.332V15.3687V15.4053V15.4419V15.4785V15.515V15.5515V15.588V15.6245V15.6609V15.6973V15.7337V15.7701V15.8064V15.8427V15.879V15.9152V15.9514V15.9876V16.0238V16.0599V16.096V16.1321V16.1681V16.2042V16.2402V16.2761V16.3121V16.348V16.3839V16.4197V16.4555V16.4913V16.5271V16.5628V16.5986V16.6342V16.6699V16.7055V16.7411V16.7767V16.8122V16.8478V16.8832V16.9187V16.9541V16.9895V17.0249V17.0602V17.0955V17.1308V17.1661V17.2013V17.2365V17.2716V17.3068V17.3419V17.377V17.412V17.447V17.482V17.517V17.5519V17.5868V17.6217V17.6565V17.6913V17.7261V17.7608V17.7955V17.8302V17.8649V17.8995V17.9341V17.9687V18.0032V18.0377V18.0722V18.1066V18.141V18.1754V18.2098V18.2441V18.2784V18.3126V18.3469V18.3811V18.4152V18.4494V18.4835V18.5175V18.5516V18.5856V18.6196V18.6535V18.6874V18.7213V18.7551V18.789V18.8227V18.8565V18.8902V18.9239V18.9576V18.9912V19.0248V19.0584V19.0919V19.1254V19.1589V19.1923V19.2257V19.2591V19.2924V19.3257V19.359V19.3922V19.4254V19.4586V19.4917V19.5248V19.5579V19.5909V19.624V19.6569V19.6899V19.7228V19.7557V19.7885V19.8213V19.8541V19.8868V19.9195V19.9522V19.9848V20.0175V20.05V20.0826V20.1151V20.1475V20.18V20.2124V20.2448V20.2771V20.3094V20.3417V20.3739V20.4061V20.4383V20.4704V20.5025V20.5346V20.5666V20.5986V20.6305V20.6625V20.6943V20.7262V20.758V20.7898V20.8215V20.8533V20.8849V20.9166V20.9482V20.9798V21.0113V21.0428V21.0743V21.1057V21.1371V21.1684V21.1998V21.2311V21.2623V21.2935V21.3247V21.3559V21.387V21.418V21.4491V21.4801V21.511V21.542V21.5729V21.6037V21.6345V21.6653V21.6961V21.7268V21.7575V21.7881V21.8187V21.8493V21.8798V21.9103V21.9407V21.9711V22.0015V22.0319V22.0622V22.0924V22.1227V22.1529V22.183V22.2131V22.2432V22.2733V22.3033V22.3332V22.3632V22.3931V22.4229V22.4527V22.4825V22.5123V22.542V22.5716V22.6013V22.6308V22.6604V22.6899V22.7194V22.7488V22.7782V22.8076V22.8369V22.8662V22.8954V22.9246V22.9538V22.9829V23.012V23.0411V23.0701V23.0991V23.128V23.1569V23.1857V23.2146V23.2433V23.2721V23.3008V23.3294V23.3581V23.3866V23.4152V23.4437V23.4721V23.5006V23.5289V23.5573V23.5856V23.6138V23.6421V23.6703V23.6984V23.7265V23.7546V23.7826V23.8106V23.8385V23.8664V23.8943V23.9221V23.9499V23.9776V24.0053V24.033V24.0606V24.0882V24.1157V24.1432V24.1706V24.198V24.2254V24.2527C42 26.469 40.9424 28.9442 39.2059 31.4824C37.4821 34.002 35.1649 36.4749 32.8179 38.664C30.4754 40.849 28.1287 42.7278 26.3655 44.0615C25.4847 44.7278 24.7514 45.2565 24.2396 45.6179Z" stroke="white" stroke-width="2"/>
<path d="M24.0236 39.7662C24.0157 39.7718 24.0078 39.7774 24 39.7829C23.9922 39.7774 23.9843 39.7718 23.9764 39.7662C23.6013 39.5005 23.0634 39.1114 22.417 38.6209C21.1225 37.6387 19.4008 36.2559 17.6832 34.6489C15.9613 33.0378 14.2688 31.2248 13.0137 29.3843C11.7459 27.5255 11 25.7485 11 24.1868V10.5044L24 7.035L37 10.5044V10.5061V10.537V10.5679V10.5989V10.6298V10.6608V10.6917V10.7227V10.7537V10.7847V10.8157V10.8467V10.8777V10.9087V10.9398V10.9708V11.0019V11.0329V11.064V11.0951V11.1261V11.1572V11.1883V11.2194V11.2505V11.2816V11.3127V11.3438V11.375V11.4061V11.4372V11.4684V11.4995V11.5307V11.5618V11.593V11.6242V11.6553V11.6865V11.7177V11.7489V11.7801V11.8113V11.8425V11.8737V11.9049V11.9361V11.9673V11.9985V12.0297V12.0609V12.0922V12.1234V12.1546V12.1858V12.2171V12.2483V12.2795V12.3108V12.342V12.3733V12.4045V12.4358V12.467V12.4983V12.5295V12.5608V12.592V12.6233V12.6545V12.6858V12.717V12.7483V12.7795V12.8108V12.842V12.8733V12.9045V12.9358V12.967V12.9983V13.0295V13.0608V13.092V13.1233V13.1545V13.1857V13.217V13.2482V13.2795V13.3107V13.3419V13.3731V13.4044V13.4356V13.4668V13.498V13.5292V13.5605V13.5917V13.6229V13.6541V13.6853V13.7165V13.7476V13.7788V13.81V13.8412V13.8724V13.9035V13.9347V13.9658V13.997V14.0281V14.0593V14.0904V14.1215V14.1527V14.1838V14.2149V14.246V14.2771V14.3082V14.3393V14.3704V14.4014V14.4325V14.4636V14.4946V14.5257V14.5567V14.5878V14.6188V14.6498V14.6808V14.7118V14.7428V14.7738V14.8048V14.8357V14.8667V14.8976V14.9286V14.9595V14.9904V15.0213V15.0522V15.0831V15.114V15.1449V15.1758V15.2066V15.2375V15.2683V15.2991V15.3299V15.3608V15.3915V15.4223V15.4531V15.4839V15.5146V15.5453V15.5761V15.6068V15.6375V15.6682V15.6989V15.7295V15.7602V15.7908V15.8214V15.8521V15.8827V15.9133V15.9438V15.9744V16.0049V16.0355V16.066V16.0965V16.127V16.1575V16.188V16.2184V16.2488V16.2793V16.3097V16.3401V16.3705V16.4008V16.4312V16.4615V16.4918V16.5221V16.5524V16.5827V16.6129V16.6432V16.6734V16.7036V16.7338V16.764V16.7941V16.8243V16.8544V16.8845V16.9146V16.9447V16.9747V17.0048V17.0348V17.0648V17.0948V17.1247V17.1547V17.1846V17.2145V17.2444V17.2743V17.3041V17.334V17.3638V17.3936V17.4233V17.4531V17.4828V17.5126V17.5423V17.5719V17.6016V17.6312V17.6608V17.6904V17.72V17.7496V17.7791V17.8086V17.8381V17.8676V17.897V17.9265V17.9559V17.9852V18.0146V18.0439V18.0733V18.1026V18.1318V18.1611V18.1903V18.2195V18.2487V18.2778V18.307V18.3361V18.3652V18.3942V18.4233V18.4523V18.4813V18.5103V18.5392V18.5681V18.597V18.6259V18.6547V18.6836V18.7124V18.7411V18.7699V18.7986V18.8273V18.856V18.8846V18.9132V18.9418V18.9704V18.9989V19.0274V19.0559V19.0844V19.1128V19.1412V19.1696V19.1979V19.2262V19.2545V19.2828V19.311V19.3393V19.3674V19.3956V19.4237V19.4518V19.4799V19.5079V19.5359V19.5639V19.5919V19.6198V19.6477V19.6756V19.7034V19.7312V19.759V19.7867V19.8145V19.8421V19.8698V19.8974V19.925V19.9526V19.9801V20.0076V20.0351V20.0625V20.09V20.1173V20.1447V20.172V20.1993V20.2265V20.2538V20.2809V20.3081V20.3352V20.3623V20.3894V20.4164V20.4434V20.4703V20.4973V20.5241V20.551V20.5778V20.6046V20.6314V20.6581V20.6848V20.7114V20.7381V20.7646V20.7912V20.8177V20.8442V20.8706V20.897V20.9234V20.9498V20.9761V21.0023V21.0286V21.0547V21.0809V21.107V21.1331V21.1592V21.1852V21.2112V21.2371V21.263V21.2889V21.3147V21.3405V21.3662V21.392V21.4176V21.4433V21.4689V21.4944V21.52V21.5455V21.5709V21.5963V21.6217V21.647V21.6723V21.6976V21.7228V21.748V21.7731V21.7982V21.8232V21.8483V21.8732V21.8982V21.9231V21.9479V21.9727V21.9975V22.0222V22.0469V22.0716V22.0962V22.1208V22.1453V22.1698V22.1942V22.2186V22.243V22.2673V22.2916V22.3158V22.34V22.3641V22.3883V22.4123V22.4363V22.4603V22.4842V22.5081V22.532V22.5558V22.5795V22.6032V22.6269V22.6505V22.6741V22.6977V22.7212V22.7446V22.768V22.7914V22.8147V22.8379V22.8612V22.8843V22.9075V22.9306V22.9536V22.9766V22.9995V23.0224V23.0453V23.0681V23.0909V23.1136V23.1362V23.1589V23.1814V23.204V23.2264V23.2489V23.2713V23.2936V23.3159V23.3381V23.3603V23.3824V23.4045V23.4266V23.4486V23.4705V23.4924V23.5143V23.5361V23.5578V23.5795V23.6012V23.6228V23.6444V23.6659V23.6873V23.7087V23.7301V23.7514V23.7726V23.7938V23.815V23.8361V23.8571V23.8781V23.8991V23.9199V23.9408V23.9616V23.9823V24.003V24.0236V24.0442V24.0647V24.0852V24.1056V24.126V24.1463V24.1666V24.1868C37 25.7485 36.2541 27.5255 34.9863 29.3843C33.7312 31.2248 32.0387 33.0378 30.3168 34.6489C28.5992 36.2559 26.8775 37.6387 25.583 38.6209C24.9366 39.1114 24.3987 39.5005 24.0236 39.7662Z" stroke="white" stroke-width="2"/>
<path d="M17 21L23 26.5L32.5 17" stroke="white" stroke-width="2" stroke-linecap="round"/>
</svg>
