<svg width="64" height="64" viewBox="0 0 64 64" fill="none" xmlns="http://www.w3.org/2000/svg">
<path d="M1 29H3C4.65685 29 6 30.3431 6 32V57C6 58.6569 4.65685 60 3 60H1V29Z" stroke="#F3CC00" stroke-width="2"/>
<path d="M6 36H10C11.6569 36 13 37.3431 13 39V50C13 51.6569 11.6569 53 10 53H6V36Z" stroke="#F3CC00" stroke-width="2"/>
<path d="M13.366 17.6245L18.366 8.9642C19.1945 7.52932 21.0292 7.0377 22.4641 7.86612L59.7032 29.3661C61.1381 30.1946 61.6297 32.0293 60.8013 33.4642L55.8013 42.1245L13.366 17.6245Z" stroke="#F3CC00" stroke-width="2"/>
<path d="M48.007 37.6246L45.507 41.9547C44.6786 43.3896 42.8438 43.8812 41.4089 43.0528L11.9641 26.0528C10.5292 25.2243 10.0376 23.3896 10.866 21.9547L13.366 17.6246L48.007 37.6246Z" stroke="#F3CC00" stroke-width="2"/>
<path d="M53.2032 40.6246L51.7032 43.2226C50.8748 44.6575 49.04 45.1491 47.6051 44.3207L45.007 42.8207L48.007 37.6246L53.2032 40.6246Z" stroke="#F3CC00" stroke-width="2"/>
<path d="M13 48C13.3333 48 15.5 48 21.5 48C27.5 48 30 42.5 32.5 38.5" stroke="#F3CC00" stroke-width="2"/>
<path d="M12 41.5C12.3333 41.5 12.5 41.5 18.5 41.5C24.5 41.5 24.5 40 27.5 35" stroke="#F3CC00" stroke-width="2"/>
<line x1="13.9641" y1="22.5886" x2="23.4903" y2="28.0886" stroke="#F3CC00" stroke-width="2"/>
</svg>
