<svg width="64" height="64" viewBox="0 0 64 64" fill="none" xmlns="http://www.w3.org/2000/svg">
<circle cx="40" cy="50" r="5" stroke="#F3CC00" stroke-width="2"/>
<mask id="path-2-inside-1_8_542" fill="white">
<path fill-rule="evenodd" clip-rule="evenodd" d="M40 2C36.1893 2 33.1 5.08924 33.1 8.9V16.275H35.1V8.9C35.1 6.19381 37.2938 4 40 4C42.7062 4 44.9 6.1938 44.9 8.9V39.4624C43.4076 38.7803 41.7482 38.4001 40 38.4001C38.2518 38.4001 36.5925 38.7803 35.1 39.4624V29.55H33.1V40.6267C30.1318 42.7698 28.2 46.2593 28.2 50.2001C28.2 56.7171 33.4831 62.0001 40 62.0001C46.517 62.0001 51.8 56.7171 51.8 50.2001C51.8 46.2593 49.8682 42.7698 46.9 40.6267V8.9C46.9 5.08923 43.8108 2 40 2ZM35.1 22.9125V20.5H33.1V22.9125V25.5H35.1V22.9125Z"/>
</mask>
<path d="M33.1 16.275H31.1V18.275H33.1V16.275ZM35.1 16.275V18.275H37.1V16.275H35.1ZM44.9 39.4624L44.0686 41.2814L46.9 42.5756V39.4624H44.9ZM35.1 39.4624H33.1V42.5756L35.9314 41.2814L35.1 39.4624ZM35.1 29.55H37.1V27.55H35.1V29.55ZM33.1 29.55V27.55H31.1V29.55H33.1ZM33.1 40.6267L34.2708 42.2482L35.1 41.6495V40.6267H33.1ZM46.9 40.6267H44.9V41.6495L45.7293 42.2482L46.9 40.6267ZM35.1 20.5H37.1V18.5H35.1V20.5ZM33.1 20.5V18.5H31.1V20.5H33.1ZM33.1 25.5H31.1V27.5H33.1V25.5ZM35.1 25.5V27.5H37.1V25.5H35.1ZM35.1 8.9C35.1 6.19381 37.2938 4 40 4V0C35.0847 0 31.1 3.98467 31.1 8.9H35.1ZM35.1 16.275V8.9H31.1V16.275H35.1ZM35.1 14.275H33.1V18.275H35.1V14.275ZM33.1 8.9V16.275H37.1V8.9H33.1ZM40 2C36.1893 2 33.1 5.08924 33.1 8.9H37.1C37.1 7.29838 38.3984 6 40 6V2ZM46.9 8.9C46.9 5.08923 43.8108 2 40 2V6C41.6016 6 42.9 7.29837 42.9 8.9H46.9ZM46.9 39.4624V8.9H42.9V39.4624H46.9ZM40 40.4001C41.4556 40.4001 42.8319 40.7161 44.0686 41.2814L45.7314 37.6434C43.9833 36.8444 42.0408 36.4001 40 36.4001V40.4001ZM35.9314 41.2814C37.1682 40.7161 38.5445 40.4001 40 40.4001V36.4001C37.9592 36.4001 36.0167 36.8444 34.2686 37.6434L35.9314 41.2814ZM33.1 29.55V39.4624H37.1V29.55H33.1ZM33.1 31.55H35.1V27.55H33.1V31.55ZM35.1 40.6267V29.55H31.1V40.6267H35.1ZM30.2 50.2001C30.2 46.9288 31.8009 44.0315 34.2708 42.2482L31.9293 39.0051C28.4627 41.5081 26.2 45.5899 26.2 50.2001H30.2ZM40 60.0001C34.5876 60.0001 30.2 55.6125 30.2 50.2001H26.2C26.2 57.8216 32.3785 64.0001 40 64.0001V60.0001ZM49.8 50.2001C49.8 55.6125 45.4124 60.0001 40 60.0001V64.0001C47.6215 64.0001 53.8 57.8216 53.8 50.2001H49.8ZM45.7293 42.2482C48.1991 44.0315 49.8 46.9288 49.8 50.2001H53.8C53.8 45.5899 51.5374 41.5081 48.0708 39.0052L45.7293 42.2482ZM44.9 8.9V40.6267H48.9V8.9H44.9ZM40 4C42.7062 4 44.9 6.1938 44.9 8.9H48.9C48.9 3.98466 44.9154 0 40 0V4ZM33.1 20.5V22.9125H37.1V20.5H33.1ZM33.1 22.5H35.1V18.5H33.1V22.5ZM35.1 22.9125V20.5H31.1V22.9125H35.1ZM35.1 25.5V22.9125H31.1V25.5H35.1ZM35.1 23.5H33.1V27.5H35.1V23.5ZM33.1 22.9125V25.5H37.1V22.9125H33.1Z" fill="#F3CC00" mask="url(#path-2-inside-1_8_542)"/>
<line x1="40" y1="16" x2="40" y2="46" stroke="#F3CC00" stroke-width="2"/>
<line x1="49" y1="11" x2="57" y2="11" stroke="#F3CC00" stroke-width="2"/>
<line x1="49" y1="35" x2="57" y2="35" stroke="#F3CC00" stroke-width="2"/>
<line x1="49" y1="17" x2="54" y2="17" stroke="#F3CC00" stroke-width="2"/>
<line x1="49" y1="29" x2="54" y2="29" stroke="#F3CC00" stroke-width="2"/>
<line x1="49" y1="23" x2="58" y2="23" stroke="#F3CC00" stroke-width="2"/>
<path d="M30 21.5455C30 23.9978 27.9931 26 25.5 26C23.0069 26 21 23.9978 21 21.5455C21 20.7315 21.2784 19.7777 21.7628 18.7568C22.2422 17.7465 22.8912 16.7371 23.5564 15.83C24.2195 14.9258 24.8849 14.142 25.3853 13.5836C25.4246 13.5398 25.4629 13.4973 25.5 13.4564C25.5371 13.4973 25.5754 13.5398 25.6147 13.5836C26.1151 14.142 26.7805 14.9258 27.4436 15.83C28.1088 16.7371 28.7578 17.7465 29.2372 18.7568C29.7216 19.7777 30 20.7315 30 21.5455Z" stroke="#F3CC00" stroke-width="2"/>
<path d="M14 21.5455C14 23.9978 11.9931 26 9.5 26C7.00688 26 5 23.9978 5 21.5455C5 20.7315 5.27839 19.7777 5.76282 18.7568C6.24221 17.7465 6.89122 16.7371 7.55641 15.83C8.2195 14.9258 8.88487 14.142 9.38529 13.5836C9.4246 13.5398 9.46287 13.4973 9.5 13.4564C9.53713 13.4973 9.5754 13.5398 9.61471 13.5836C10.1151 14.142 10.7805 14.9258 11.4436 15.83C12.1088 16.7371 12.7578 17.7465 13.2372 18.7568C13.7216 19.7777 14 20.7315 14 21.5455Z" stroke="#F3CC00" stroke-width="2"/>
<path d="M22 36.5455C22 38.9978 19.9931 41 17.5 41C15.0069 41 13 38.9978 13 36.5455C13 35.7315 13.2784 34.7777 13.7628 33.7568C14.2422 32.7465 14.8912 31.7371 15.5564 30.83C16.2195 29.9258 16.8849 29.142 17.3853 28.5836C17.4246 28.5398 17.4629 28.4973 17.5 28.4564C17.5371 28.4973 17.5754 28.5398 17.6147 28.5836C18.1151 29.142 18.7805 29.9258 19.4436 30.83C20.1088 31.7371 20.7578 32.7465 21.2372 33.7568C21.7216 34.7777 22 35.7315 22 36.5455Z" stroke="#F3CC00" stroke-width="2"/>
</svg>
