<svg width="64" height="64" viewBox="0 0 64 64" fill="none" xmlns="http://www.w3.org/2000/svg">
<path d="M48 16.8211C48 23.6535 43.9243 30.9742 39.6958 36.6965C37.599 39.5339 35.5002 41.9315 33.925 43.62C33.138 44.4636 32.4831 45.1288 32.0264 45.5816C32.0215 45.5865 32.0166 45.5913 32.0118 45.5961C32.0029 45.587 31.994 45.5779 31.985 45.5687C31.5275 45.1003 30.8719 44.4138 30.084 43.5463C28.5073 41.8103 26.4065 39.3554 24.3079 36.4788C20.0712 30.6715 16 23.3536 16 16.8211C16 8.09328 23.1534 1 32 1C40.8466 1 48 8.09328 48 16.8211Z" stroke="#F3CC00" stroke-width="2"/>
<path d="M17.0489 52.8136L4.35134 59.7208C3.53859 60.163 2.61293 59.3592 2.93671 58.4924L10.8631 37.2744C10.9452 37.0546 11.102 36.8707 11.306 36.7548L19.5826 32.0534C20.3291 31.6294 21.2277 32.2811 21.0565 33.1223L20.369 36.5M17.0489 52.8136L30.5197 60.1894C31.1862 60.5543 32 60.0721 32 59.3123V44.9999M17.0489 52.8136L18.1303 47.5M19.6567 40L18.8935 43.75" stroke="#F3CC00" stroke-width="2"/>
<path d="M46.9511 52.8136L59.6487 59.7208C60.4614 60.163 61.3871 59.3592 61.0633 58.4924L53.1369 37.2744C53.0548 37.0546 52.898 36.8707 52.694 36.7548L44.4174 32.0534C43.6709 31.6294 42.7723 32.2811 42.9435 33.1223L46.9511 52.8136ZM46.9511 52.8136L33.4803 60.1894C32.8138 60.5543 32 60.0721 32 59.3123V44.9999" stroke="#F3CC00" stroke-width="2"/>
<circle cx="32" cy="17" r="10" stroke="#F3CC00" stroke-width="2"/>
<circle cx="32" cy="17" r="6" stroke="#F3CC00" stroke-width="2"/>
</svg>
