<svg width="64" height="64" viewBox="0 0 64 64" fill="none" xmlns="http://www.w3.org/2000/svg">
<path d="M62 28.5V23.375M62 18.25V12C62 9.79086 60.2091 8 58 8H6C3.79086 8 2 9.79086 2 12V45C2 47.2091 3.79086 49 6 49H58C60.2091 49 62 47.2091 62 45V34" stroke="#F3CC00" stroke-width="2"/>
<rect x="19" y="55" width="26" height="3" rx="1" stroke="#F3CC00" stroke-width="2"/>
<rect x="26" y="49" width="12" height="6" rx="1" stroke="#F3CC00" stroke-width="2"/>
<line x1="3" y1="40" x2="62" y2="40" stroke="#F3CC00" stroke-width="2"/>
<line x1="29" y1="44" x2="37" y2="44" stroke="#F3CC00" stroke-width="2"/>
<path d="M28.5858 31.5858L22.4142 25.4142C21.6332 24.6332 21.6332 23.3668 22.4142 22.5858L22.5858 22.4142C23.3668 21.6332 24.6332 21.6332 25.4142 22.4142L28.5858 25.5858C29.3668 26.3668 30.6332 26.3668 31.4142 25.5858L39.5858 17.4142C40.3668 16.6332 41.6332 16.6332 42.4142 17.4142L42.5858 17.5858C43.3668 18.3668 43.3668 19.6332 42.5858 20.4142L31.4142 31.5858C30.6332 32.3668 29.3668 32.3668 28.5858 31.5858Z" stroke="#F3CC00" stroke-width="2"/>
</svg>
