<svg width="64" height="64" viewBox="0 0 64 64" fill="none" xmlns="http://www.w3.org/2000/svg">
<path d="M52.3043 23C49.5956 11.5332 39.2943 3 27 3C12.6406 3 1 14.6406 1 29C1 43.3594 12.6406 55 27 55C32.0963 55 36.8502 53.5337 40.8627 51" stroke="#F3CC00" stroke-width="2"/>
<path d="M46.0844 23C43.5359 14.8858 35.9553 9 27 9C24.5374 9 22.1787 9.44509 20 10.2592M37.5 46.0253C34.4482 47.9115 30.8512 49 27 49C15.9543 49 7 40.0457 7 29C7 26.9096 7.32071 24.8941 7.9156 23M14.5 13.3866C13.0265 14.5678 11.7238 15.9532 10.6349 17.5" stroke="#F3CC00" stroke-width="2"/>
<mask id="path-3-inside-1_9_1772" fill="white">
<path fill-rule="evenodd" clip-rule="evenodd" d="M47.3789 60.886C48.1791 61.9459 49.771 61.9459 50.5712 60.886L63.5427 43.7052C64.5375 42.3876 63.5975 40.5001 61.9465 40.5001L57.9751 40.5001C56.8705 40.5001 55.9751 39.6047 55.9751 38.5001L55.9751 24.0001C55.9751 22.8956 55.0796 22.0001 53.9751 22.0001L43.9751 22.0001C42.8705 22.0001 41.9751 22.8956 41.9751 24.0001L41.9751 38.5001C41.9751 39.6047 41.0796 40.5001 39.9751 40.5001L36.0036 40.5001C34.3526 40.5001 33.4126 42.3876 34.4075 43.7052L47.3789 60.886Z"/>
</mask>
<path d="M50.5712 60.886L52.1674 62.0911L52.1674 62.0911L50.5712 60.886ZM47.3789 60.886L45.7827 62.0911L45.7827 62.0911L47.3789 60.886ZM63.5427 43.7052L65.1388 44.9103L65.1388 44.9103L63.5427 43.7052ZM34.4075 43.7052L32.8113 44.9103L32.8113 44.9103L34.4075 43.7052ZM41.9751 38.5001L39.9751 38.5001L41.9751 38.5001ZM41.9751 24.0001L43.9751 24.0001L41.9751 24.0001ZM48.9751 59.6809L48.9751 59.6809L45.7827 62.0911C47.3831 64.2108 50.567 64.2108 52.1674 62.0911L48.9751 59.6809ZM61.9465 42.5001L48.9751 59.6809L52.1674 62.0911L65.1388 44.9103L61.9465 42.5001ZM61.9465 42.5001L61.9465 42.5001L65.1388 44.9103C67.1285 42.275 65.2486 38.5001 61.9465 38.5001L61.9465 42.5001ZM57.9751 42.5001L61.9465 42.5001L61.9465 38.5001L57.9751 38.5001L57.9751 42.5001ZM53.9751 24.0001L53.9751 38.5001L57.9751 38.5001L57.9751 24.0001L53.9751 24.0001ZM43.9751 24.0001L53.9751 24.0001L53.9751 20.0001L43.9751 20.0001L43.9751 24.0001ZM43.9751 38.5001L43.9751 24.0001L39.9751 24.0001L39.9751 38.5001L43.9751 38.5001ZM36.0036 42.5001L39.9751 42.5001L39.9751 38.5001L36.0036 38.5001L36.0036 42.5001ZM36.0036 42.5001L36.0036 42.5001L36.0036 38.5001C32.7016 38.5001 30.8216 42.275 32.8113 44.9103L36.0036 42.5001ZM48.9751 59.6809L36.0036 42.5001L32.8113 44.9103L45.7827 62.0911L48.9751 59.6809ZM39.9751 38.5001L39.9751 42.5001C42.1842 42.5001 43.9751 40.7093 43.9751 38.5001L39.9751 38.5001ZM43.9751 20.0001C41.7659 20.0001 39.9751 21.791 39.9751 24.0001L43.9751 24.0001L43.9751 20.0001ZM57.9751 24.0001C57.9751 21.791 56.1842 20.0001 53.9751 20.0001L53.9751 24.0001L57.9751 24.0001ZM57.9751 38.5001L53.9751 38.5001C53.9751 40.7093 55.7659 42.5001 57.9751 42.5001L57.9751 38.5001Z" fill="#F3CC00" mask="url(#path-3-inside-1_9_1772)"/>
<path d="M32 24C32 20 29.8 20 27 20C23.5 20 22 21 22 24C22 27 21.5 29 26.5 29C31.5 29 32 30 32 34C32 38 30 38 27 38C24.6 38 22 38 22 34.5" stroke="#F3CC00" stroke-width="2"/>
<line x1="27" y1="18" x2="27" y2="41" stroke="#F3CC00" stroke-width="2"/>
</svg>
