<svg width="64" height="64" viewBox="0 0 64 64" fill="none" xmlns="http://www.w3.org/2000/svg">
<g clip-path="url(#clip0_6_14)">
<path d="M18.6697 45.1555C17.3535 44.1976 14.5039 41.9055 12.8455 40.3994C9.98273 37.7996 13.1416 33.7606 16.3005 36.0396C17.5241 36.9223 19.8543 38.3186 23.0132 40.3994C26.7738 42.8765 32.4899 46.1463 32.4899 53.3795C32.4899 56.6525 32.4899 58.685 32.4899 60.0005C32.4899 61.1051 31.5945 62 30.4899 62H21.8543C20.7497 62 19.8543 61.1045 19.8543 60V59.1951C19.8543 58.5324 19.527 57.9134 18.9882 57.5276C17.6342 56.5582 15.4783 54.9584 13.3391 53.3795C9.98273 50.9024 7.3174 47.3353 5.83666 41.6875C4.35593 36.0396 2.67776 29.1036 2.08546 26.5274C1.28814 23.0594 6.2948 21.7713 7.71226 25.2393C8.97583 28.3307 11.1888 34.124 12.1431 36.6341" stroke="#F3CC00" stroke-width="2"/>
<path d="M46.349 45.1712C47.6689 44.2143 50.5265 41.9242 52.1896 40.4195C55.0604 37.8221 51.8926 33.787 48.7248 36.0638C47.4978 36.9457 45.1611 38.3407 41.9933 40.4195C38.2221 42.8944 32.4899 46.1611 32.4899 53.3876C32.4899 56.656 32.4899 58.6863 32.4899 60.0006C32.4899 61.1052 33.3854 62.0001 34.4899 62.0001H43.1611C44.2656 62.0001 45.1611 61.1046 45.1611 60.0001V59.201C45.1611 58.5371 45.4896 57.9171 46.0301 57.5315C47.3879 56.563 49.5496 54.9649 51.6946 53.3876C54.3124 51.4628 56.511 48.8792 58.0576 45.1712M52.894 36.6578C53.8509 34.1499 56.0701 28.3621 57.3373 25.2735C58.7587 21.8087 63.7794 23.0956 62.9799 26.5604C62.7188 27.6918 62.2473 29.6647 61.6747 32M60.6166 36.2608C60.2502 37.7171 59.8715 39.2016 59.5 40.6292" stroke="#F3CC00" stroke-width="2"/>
<path d="M24 27.1543H16.4731C15.3685 27.1543 14.4731 26.2589 14.4731 25.1543V19.4832C14.4731 16.7217 16.7117 14.4832 19.4731 14.4832H28" stroke="#F3CC00" stroke-width="2"/>
<path d="M40.7283 27.1543H48.2552C49.3598 27.1543 50.2552 26.2589 50.2552 25.1543V19.4832C50.2552 16.7217 48.0166 14.4832 45.2552 14.4832H36.7283" stroke="#F3CC00" stroke-width="2"/>
<path d="M23.9765 27.4026C23.9765 24.6412 26.2151 22.4026 28.9765 22.4026H35.8054C38.5668 22.4026 40.8054 24.6412 40.8054 27.4026V33.0737C40.8054 34.1783 39.9099 35.0737 38.8054 35.0737H25.9765C24.8719 35.0737 23.9765 34.1783 23.9765 33.0737V27.4026Z" stroke="#F3CC00" stroke-width="2"/>
<circle cx="32.4898" cy="16.661" r="4.74161" stroke="#F3CC00" stroke-width="2"/>
<circle cx="22.9867" cy="8.74161" r="4.74161" stroke="#F3CC00" stroke-width="2"/>
<circle cx="5.74161" cy="5.74161" r="4.74161" transform="matrix(-1 0 0 1 47.4832 3)" stroke="#F3CC00" stroke-width="2"/>
</g>
<defs>
<clipPath id="clip0_6_14">
<rect width="64" height="64" fill="white"/>
</clipPath>
</defs>
</svg>
